<svg width="16" height="22" viewBox="0 0 16 22" fill="none" xmlns="http://www.w3.org/2000/svg">
<path d="M7.29289 21.7071C7.68342 22.0976 8.31658 22.0976 8.70711 21.7071L15.0711 15.3431C15.4616 14.9526 15.4616 14.3195 15.0711 13.9289C14.6805 13.5384 14.0474 13.5384 13.6569 13.9289L8 19.5858L2.34315 13.9289C1.95262 13.5384 1.31946 13.5384 0.928932 13.9289C0.538408 14.3195 0.538408 14.9526 0.928932 15.3431L7.29289 21.7071ZM7 20.3548L7 21L9 21L9 20.3548L7 20.3548Z" fill="black"/>
<path d="M8.70711 0.292893C8.31658 -0.0976311 7.68342 -0.0976311 7.29289 0.292893L0.928932 6.65685C0.538408 7.04738 0.538408 7.68054 0.928932 8.07107C1.31946 8.46159 1.95262 8.46159 2.34315 8.07107L8 2.41421L13.6569 8.07107C14.0474 8.46159 14.6805 8.46159 15.0711 8.07107C15.4616 7.68054 15.4616 7.04738 15.0711 6.65685L8.70711 0.292893ZM7 1L7 1.64516L9 1.64516L9 1L7 1Z" fill="black"/>
</svg>
