<svg xmlns="http://www.w3.org/2000/svg" width="13" height="13" viewBox="0 0 13 13" fill="none">
  <g clip-path="url(#clip0_226_86)">
    <path d="M11.8801 1.90345H10.2648V1.21114C10.2648 1.0573 10.2263 0.941914 10.1494 0.86499C10.0725 0.788067 9.9763 0.749605 9.86092 0.749605C9.74553 0.749605 9.64938 0.788067 9.57245 0.86499C9.49553 0.941914 9.45707 1.0573 9.45707 1.21114V1.90345H7.26476V1.21114C7.26476 1.0573 7.2263 0.941914 7.14938 0.86499C7.07245 0.788067 6.9763 0.749605 6.86092 0.749605C6.74553 0.749605 6.64938 0.788067 6.57245 0.86499C6.49553 0.941914 6.45707 1.0573 6.45707 1.21114V1.90345H4.14938V1.21114C4.14938 1.0573 4.11091 0.941914 4.03399 0.86499C3.95707 0.788067 3.88015 0.749605 3.80322 0.749605C3.7263 0.749605 3.64938 0.788067 3.57245 0.86499C3.49553 0.941914 3.45707 1.0573 3.45707 1.21114V1.90345H1.84168C1.53399 1.90345 1.28399 1.99961 1.09168 2.19191C0.899377 2.38422 0.803223 2.63422 0.803223 2.94191V11.8265C0.803223 12.1342 0.899377 12.3842 1.09168 12.5765C1.28399 12.7688 1.53399 12.865 1.84168 12.865H11.8801C12.1109 12.865 12.3417 12.7688 12.5725 12.5765C12.8032 12.3842 12.9186 12.1342 12.9186 11.8265V2.94191C12.9186 2.63422 12.8032 2.38422 12.5725 2.19191C12.3417 1.99961 12.1109 1.90345 11.8801 1.90345ZM12.1109 11.8265C12.1109 11.9035 12.0917 11.9611 12.0532 11.9996C12.0148 12.0381 11.9571 12.0573 11.8801 12.0573H1.84168C1.76476 12.0573 1.70707 12.0381 1.66861 11.9996C1.63015 11.9611 1.61091 11.9035 1.61091 11.8265V2.94191C1.61091 2.86499 1.63015 2.8073 1.66861 2.76884C1.70707 2.73037 1.76476 2.71114 1.84168 2.71114H3.45707V3.40345C3.45707 3.5573 3.49553 3.67268 3.57245 3.74961C3.64938 3.82653 3.7263 3.86499 3.80322 3.86499C3.88015 3.86499 3.95707 3.82653 4.03399 3.74961C4.11091 3.67268 4.14938 3.5573 4.14938 3.40345V2.71114H6.45707V3.40345C6.45707 3.5573 6.49553 3.67268 6.57245 3.74961C6.64938 3.82653 6.74553 3.86499 6.86092 3.86499C6.9763 3.86499 7.07245 3.82653 7.14938 3.74961C7.2263 3.67268 7.26476 3.5573 7.26476 3.40345V2.71114H9.45707V3.40345C9.45707 3.5573 9.49553 3.67268 9.57245 3.74961C9.64938 3.82653 9.74553 3.86499 9.86092 3.86499C9.9763 3.86499 10.0725 3.82653 10.1494 3.74961C10.2263 3.67268 10.2648 3.5573 10.2648 3.40345V2.71114H11.8801C11.9571 2.71114 12.0148 2.73037 12.0532 2.76884C12.0917 2.8073 12.1109 2.86499 12.1109 2.94191V11.8265ZM4.26476 5.36499H5.30322V6.28807H4.26476V5.36499ZM4.26476 7.32653H5.30322V8.36499H4.26476V7.32653ZM4.26476 9.40345H5.30322V10.3265H4.26476V9.40345ZM6.34168 9.40345H7.38015V10.3265H6.34168V9.40345ZM6.34168 7.32653H7.38015V8.36499H6.34168V7.32653ZM6.34168 5.36499H7.38015V6.28807H6.34168V5.36499ZM8.30322 9.40345H9.34168V10.3265H8.30322V9.40345ZM8.30322 7.32653H9.34168V8.36499H8.30322V7.32653ZM8.30322 5.36499H9.34168V6.28807H8.30322V5.36499Z" fill="#212529"/>
  </g>
  <defs>
    <clipPath id="clip0_226_86">
      <rect width="12" height="12" fill="white" transform="matrix(1 0 0 -1 0.803223 12.865)"/>
    </clipPath>
  </defs>
</svg>