<svg xmlns="http://www.w3.org/2000/svg" width="12" height="13" viewBox="0 0 12 13" fill="none">
  <g clip-path="url(#clip0_51_64)">
    <path d="M6 0.00229073C4.92308 0.00229073 3.92308 0.290752 3 0.867676C2.07692 1.4446 1.34615 2.1946 0.807692 3.11768C0.269231 4.04075 0 5.04075 0 6.11768C0 7.1946 0.269231 8.1946 0.807692 9.11768C1.34615 10.0408 2.07692 10.7715 3 11.31C3.92308 11.8484 4.92308 12.1177 6 12.1177C7.07692 12.1177 8.07692 11.8484 9 11.31C9.92308 10.7715 10.6731 10.0408 11.25 9.11768C11.8269 8.1946 12.1154 7.1946 12.1154 6.11768C12.1154 5.04075 11.8269 4.04075 11.25 3.11768C10.6731 2.1946 9.92308 1.4446 9 0.867676C8.07692 0.290752 7.07692 0.00229073 6 0.00229073ZM6 10.8484C5.15385 10.8484 4.36538 10.6369 3.63462 10.2138C2.90385 9.79075 2.32692 9.21383 1.90385 8.48306C1.48077 7.75229 1.26923 6.96383 1.26923 6.11768C1.26923 5.27152 1.48077 4.48306 1.90385 3.75229C2.32692 3.02152 2.90385 2.4446 3.63462 2.02152C4.36538 1.59844 5.15385 1.38691 6 1.38691C6.84615 1.38691 7.63462 1.59844 8.36539 2.02152C9.09615 2.4446 9.67308 3.02152 10.0962 3.75229C10.5192 4.48306 10.7308 5.27152 10.7308 6.11768C10.7308 6.96383 10.5192 7.75229 10.0962 8.48306C9.67308 9.21383 9.09615 9.79075 8.36539 10.2138C7.63462 10.6369 6.84615 10.8484 6 10.8484ZM9.23077 6.11768H6.34615V2.54075C6.34615 2.38691 6.28846 2.27152 6.17308 2.1946C6.05769 2.11768 5.92308 2.07921 5.76923 2.07921C5.61538 2.07921 5.48077 2.11768 5.36538 2.1946C5.25 2.27152 5.19231 2.38691 5.19231 2.54075V6.57921C5.19231 6.73306 5.25 6.86768 5.36538 6.98306C5.48077 7.09844 5.61538 7.15614 5.76923 7.15614H9.23077C9.38462 7.15614 9.51923 7.09844 9.63462 6.98306C9.75 6.86768 9.80769 6.73306 9.80769 6.57921C9.80769 6.42537 9.75 6.30998 9.63462 6.23306C9.51923 6.15614 9.38462 6.11768 9.23077 6.11768Z" fill="#212529"/>
  </g>
  <defs>
    <clipPath id="clip0_51_64">
      <rect width="12" height="12" fill="white" transform="matrix(1 0 0 -1 0 12.1177)"/>
    </clipPath>
  </defs>
</svg>