<svg width="43" height="43" viewBox="0 0 43 43" fill="none" xmlns="http://www.w3.org/2000/svg">
<g clip-path="url(#clip0_226_178)">
<path d="M39.1239 25.6268C39.0305 25.5334 38.8905 25.5101 38.7039 25.5568C38.5172 25.6034 38.3772 25.6968 38.2839 25.8368C38.1905 25.9768 38.1672 26.1401 38.2139 26.3268C38.2605 26.5134 38.3305 26.6534 38.4239 26.7468C39.3572 27.4001 40.1039 28.2634 40.6639 29.3368C41.2239 30.4101 41.5039 31.5068 41.5039 32.6268C41.5039 34.4001 40.9439 35.9868 39.8239 37.3868C39.1705 35.9868 38.1905 34.8668 36.8839 34.0268C37.3505 33.3734 37.5839 32.6034 37.5839 31.7168C37.5839 30.8301 37.2572 30.0368 36.6039 29.3368C35.9505 28.6368 35.1339 28.2868 34.1539 28.2868C33.1739 28.2868 32.3572 28.6368 31.7039 29.3368C31.0505 30.0368 30.7239 30.8301 30.7239 31.7168C30.7239 32.6034 30.9572 33.3734 31.4239 34.0268C30.1172 34.8668 29.1372 35.9868 28.4839 37.3868C27.3639 35.9868 26.8039 34.4001 26.8039 32.6268C26.8039 30.6668 27.5272 28.9634 28.9739 27.5168C30.4205 26.0701 32.1705 25.3468 34.2239 25.3468C34.9705 25.3468 35.7172 25.4401 36.4639 25.6268C36.6505 25.7201 36.8139 25.7201 36.9539 25.6268C37.0939 25.5334 37.1872 25.4168 37.2339 25.2768C37.2805 25.1368 37.2572 24.9968 37.1639 24.8568C37.0705 24.7168 36.9772 24.6001 36.8839 24.5068C35.9505 24.2268 35.0639 24.0868 34.2239 24.0868C32.8239 24.0868 31.5172 24.3901 30.3039 24.9968C29.0905 25.6034 28.0639 26.4668 27.2239 27.5868L22.3239 24.3668V19.6068C24.5639 19.4201 26.4772 18.5101 28.0639 16.8768C29.6505 15.2434 30.4439 13.3068 30.4439 11.0668C30.4439 9.4801 30.0472 8.03343 29.2539 6.72676C28.4605 5.4201 27.4105 4.37009 26.1039 3.57676C24.7972 2.78343 23.3505 2.38676 21.7639 2.38676C19.9905 2.38676 18.3572 2.9001 16.8639 3.92676C16.7705 4.0201 16.7005 4.1601 16.6539 4.34676C16.6072 4.53343 16.6305 4.69676 16.7239 4.83676C16.8172 4.97676 16.9572 5.04676 17.1439 5.04676C17.3305 5.04676 17.4705 5.0001 17.5639 4.90676C18.8705 4.06676 20.2705 3.64676 21.7639 3.64676C23.8172 3.64676 25.5672 4.37009 27.0139 5.81676C28.4605 7.26343 29.1839 9.01343 29.1839 11.0668C29.1839 12.7468 28.6239 14.2868 27.5039 15.6868C26.7572 14.2868 25.7305 13.1668 24.4239 12.3268C24.9839 11.6734 25.2639 10.9034 25.2639 10.0168C25.2639 9.1301 24.9139 8.33676 24.2139 7.63676C23.5139 6.93676 22.6972 6.58676 21.7639 6.58676C20.8305 6.58676 20.0139 6.93676 19.3139 7.63676C18.6139 8.33676 18.2639 9.1301 18.2639 10.0168C18.2639 10.9034 18.5439 11.6734 19.1039 12.3268C17.7972 13.1668 16.7705 14.2868 16.0239 15.6868C14.9039 14.2868 14.3439 12.7468 14.3439 11.0668C14.3439 9.38676 14.8572 7.84676 15.8839 6.44676C15.9772 6.35343 16.0239 6.21343 16.0239 6.02676C16.0239 5.8401 15.9539 5.7001 15.8139 5.60676C15.6739 5.51343 15.5105 5.4901 15.3239 5.53676C15.1372 5.58343 14.9972 5.65343 14.9039 5.74676C13.7839 7.33343 13.2239 9.10676 13.2239 11.0668C13.2239 13.3068 13.9939 15.2434 15.5339 16.8768C17.0739 18.5101 18.9639 19.4201 21.2039 19.6068V24.3668L16.3039 27.5868C15.4639 26.4668 14.4372 25.6034 13.2239 24.9968C12.0105 24.3901 10.6805 24.0868 9.23386 24.0868C7.78719 24.0868 6.41052 24.4834 5.10386 25.2768C3.79719 26.0701 2.74719 27.1201 1.95386 28.4268C1.16052 29.7334 0.763855 31.1801 0.763855 32.7668C0.763855 34.7268 1.39385 36.5001 2.65385 38.0868C3.91386 39.6734 5.52386 40.7001 7.48386 41.1668C7.67052 41.1668 7.83386 41.1201 7.97386 41.0268C8.11385 40.9334 8.20719 40.8168 8.25386 40.6768C8.30052 40.5368 8.27719 40.3734 8.18386 40.1868C8.09052 40.0001 7.95052 39.9068 7.76385 39.9068C6.55052 39.6268 5.47719 39.1134 4.54385 38.3668C5.29052 36.7801 6.45719 35.5668 8.04386 34.7268C8.23052 34.5401 8.32385 34.3301 8.32385 34.0968C8.32385 33.8634 8.23052 33.7001 8.04386 33.6068C7.39052 33.1401 7.06386 32.5568 7.06386 31.8568C7.06386 31.1568 7.29719 30.5968 7.76385 30.1768C8.23052 29.7568 8.76719 29.5468 9.37385 29.5468C9.98052 29.5468 10.5172 29.7568 10.9839 30.1768C11.4505 30.5968 11.6839 31.1568 11.6839 31.8568C11.6839 32.5568 11.3572 33.1401 10.7039 33.6068C10.5172 33.7001 10.4239 33.8634 10.4239 34.0968C10.4239 34.3301 10.5639 34.5401 10.8439 34.7268C12.3372 35.4734 13.4572 36.6868 14.2039 38.3668C12.9905 39.3934 11.5905 39.9534 10.0039 40.0468C9.91052 40.0468 9.79385 40.1168 9.65386 40.2568C9.51385 40.3968 9.46719 40.5601 9.51385 40.7468C9.56052 40.9334 9.63052 41.0734 9.72386 41.1668C9.81719 41.2601 9.95719 41.3068 10.1439 41.3068C12.3839 41.1201 14.2505 40.2101 15.7439 38.5768C17.2372 36.9434 17.9839 35.0068 17.9839 32.7668C17.9839 31.2734 17.6105 29.8734 16.8639 28.5668L21.7639 25.4868L26.6639 28.5668C25.9172 29.8734 25.5439 31.2734 25.5439 32.7668C25.5439 34.2601 25.9405 35.6601 26.7339 36.9668C27.5272 38.2734 28.5772 39.3234 29.8839 40.1168C31.1905 40.9101 32.6139 41.3068 34.1539 41.3068C35.6939 41.3068 37.1172 40.9101 38.4239 40.1168C39.7305 39.3234 40.7805 38.2734 41.5739 36.9668C42.3672 35.6601 42.7639 34.2834 42.7639 32.8368C42.7639 31.3901 42.4372 30.0368 41.7839 28.7768C41.1305 27.5168 40.2439 26.4668 39.1239 25.6268ZM15.0439 37.3868C14.3905 35.9868 13.4105 34.8668 12.1039 34.0268C12.6639 33.3734 12.9439 32.6034 12.9439 31.7168C12.9439 30.8301 12.5939 30.0368 11.8939 29.3368C11.1939 28.6368 10.3539 28.2868 9.37385 28.2868C8.39386 28.2868 7.57719 28.6368 6.92385 29.3368C6.27052 30.0368 5.94385 30.8301 5.94385 31.7168C5.94385 32.6034 6.17719 33.3734 6.64386 34.0268C5.33719 34.8668 4.35719 35.9868 3.70386 37.3868C2.58386 35.9868 2.02385 34.4468 2.02385 32.7668C2.02385 30.7134 2.74719 28.9634 4.19386 27.5168C5.64052 26.0701 7.36719 25.3468 9.37385 25.3468C11.3805 25.3468 13.1072 26.0701 14.5539 27.5168C16.0005 28.9634 16.7239 30.7134 16.7239 32.7668C16.7239 34.4468 16.1639 35.9868 15.0439 37.3868ZM20.3639 13.0268C20.5505 12.8401 20.6672 12.6301 20.7139 12.3968C20.7605 12.1634 20.6905 12.0001 20.5039 11.9068C19.8505 11.4401 19.5239 10.8568 19.5239 10.1568C19.5239 9.45676 19.7339 8.89676 20.1539 8.47676C20.5739 8.05676 21.1105 7.84676 21.7639 7.84676C22.4172 7.84676 22.9539 8.05676 23.3739 8.47676C23.7939 8.89676 24.0039 9.45676 24.0039 10.1568C24.0039 10.8568 23.6772 11.4401 23.0239 11.9068C22.9305 12.0001 22.8839 12.1634 22.8839 12.3968C22.8839 12.6301 22.9772 12.8401 23.1639 13.0268C24.6572 13.8668 25.7772 15.0801 26.5239 16.6668C25.1239 17.7868 23.5372 18.3468 21.7639 18.3468C19.9905 18.3468 18.4039 17.7868 17.0039 16.6668C17.7505 15.0801 18.8705 13.8668 20.3639 13.0268ZM34.2239 40.0468C32.3572 40.0468 30.7239 39.4868 29.3239 38.3668C30.0705 36.6868 31.2372 35.4734 32.8239 34.7268C33.0105 34.5401 33.1039 34.3301 33.1039 34.0968C33.1039 33.8634 33.0105 33.7001 32.8239 33.6068C32.1705 33.1401 31.8439 32.5568 31.8439 31.8568C31.8439 31.1568 32.0772 30.5968 32.5439 30.1768C33.0105 29.7568 33.5472 29.5468 34.1539 29.5468C34.7605 29.5468 35.2972 29.7568 35.7639 30.1768C36.2305 30.5968 36.4639 31.1568 36.4639 31.8568C36.4639 32.5568 36.1372 33.1401 35.4839 33.6068C35.2972 33.7001 35.2039 33.8634 35.2039 34.0968C35.2039 34.3301 35.2972 34.5401 35.4839 34.7268C37.0705 35.4734 38.2372 36.6868 38.9839 38.3668C37.5839 39.4868 35.9972 40.0468 34.2239 40.0468Z" fill="white"/>
</g>
<defs>
<clipPath id="clip0_226_178">
<rect width="42.02" height="42" fill="white" transform="matrix(1 0 0 -1 0.753845 42.8467)"/>
</clipPath>
</defs>
</svg>
