<svg xmlns="http://www.w3.org/2000/svg" width="10" height="15" viewBox="0 0 10 15" fill="none">
  <g clip-path="url(#clip0_51_59)">
    <path d="M4.98498 2.54075C4.26703 2.54075 3.66126 2.78755 3.16767 3.28114C2.67408 3.77473 2.42729 4.3805 2.42729 5.09844C2.42729 5.81639 2.67408 6.42216 3.16767 6.91575C3.66126 7.40934 4.26703 7.65614 4.98498 7.65614C5.70293 7.65614 6.3087 7.40934 6.80229 6.91575C7.29588 6.42216 7.54267 5.81639 7.54267 5.09844C7.54267 4.3805 7.29588 3.77473 6.80229 3.28114C6.3087 2.78755 5.70293 2.54075 4.98498 2.54075ZM4.98498 6.71383C4.71575 6.71383 4.42408 6.62409 4.10998 6.4446C3.79588 6.26511 3.57152 6.01832 3.4369 5.70421C3.30229 5.39011 3.27985 5.05357 3.3696 4.6946C3.45934 4.33562 3.61639 4.04396 3.84075 3.8196C4.06511 3.59524 4.35678 3.43819 4.71575 3.34844C5.07472 3.2587 5.41126 3.28114 5.72537 3.41575C6.03947 3.55037 6.28626 3.77473 6.46575 4.08883C6.64524 4.40293 6.73498 4.76191 6.73498 5.16575C6.73498 5.5696 6.57793 5.92857 6.26383 6.24268C5.94972 6.55678 5.52344 6.71383 4.98498 6.71383ZM4.98498 0.117675C4.08754 0.117675 3.25742 0.319598 2.4946 0.723444C1.73178 1.12729 1.12601 1.71062 0.677288 2.47344C0.22857 3.23627 0.00421143 4.08883 0.00421143 5.03114C0.00421143 5.97344 0.273442 6.84844 0.811904 7.65614L4.71575 13.8484C4.80549 14.0279 4.94011 14.1177 5.1196 14.1177C5.29908 14.1177 5.4337 14.0279 5.52344 13.8484L9.29267 7.52152C9.83113 6.71383 10.0779 5.86127 10.0331 4.96383C9.98819 4.06639 9.74139 3.23627 9.29267 2.47344C8.84396 1.71062 8.23819 1.12729 7.47537 0.723444C6.71254 0.319598 5.88242 0.117675 4.98498 0.117675ZM8.6196 7.11768L5.1196 12.9061L1.48498 7.11768C1.03626 6.48947 0.811904 5.79396 0.811904 5.03114C0.811904 4.26832 1.01383 3.5728 1.41767 2.9446C1.82152 2.31639 2.33754 1.8228 2.96575 1.46383C3.59396 1.10485 4.28947 0.925367 5.05229 0.925367C5.81511 0.925367 6.51062 1.10485 7.13883 1.46383C7.76703 1.8228 8.26062 2.31639 8.6196 2.9446C8.97857 3.5728 9.15806 4.26832 9.15806 5.03114C9.15806 5.79396 8.97857 6.48947 8.6196 7.11768Z" fill="#212529"/>
  </g>
  <defs>
    <clipPath id="clip0_51_59">
      <rect width="9.97" height="14" fill="white" transform="matrix(1 0 0 -1 0 14.1177)"/>
    </clipPath>
  </defs>
</svg>