<svg width="52" height="46" viewBox="0 0 52 46" fill="none" xmlns="http://www.w3.org/2000/svg">
<g id="Icon">
<path id="Vector" d="M47.4832 27.0912C47.3677 26.9899 47.1944 26.9646 46.9634 27.0152C46.7324 27.0659 46.5592 27.1672 46.4437 27.3191C46.3282 27.4711 46.2993 27.6484 46.357 27.851C46.4148 28.0537 46.5014 28.2056 46.6169 28.3069C47.7719 29.0161 48.6959 29.9533 49.3889 31.1183C50.0819 32.2834 50.4284 33.4739 50.4284 34.6896C50.4284 36.6145 49.7354 38.3368 48.3494 39.8565C47.5409 38.3368 46.3282 37.1211 44.7112 36.2093C45.2887 35.5001 45.5774 34.6643 45.5774 33.7018C45.5774 32.7393 45.1732 31.8782 44.3647 31.1183C43.5561 30.3585 42.5455 29.9786 41.3328 29.9786C40.12 29.9786 39.1094 30.3585 38.3009 31.1183C37.4924 31.8782 37.0881 32.7393 37.0881 33.7018C37.0881 34.6643 37.3769 35.5001 37.9544 36.2093C36.3374 37.1211 35.1246 38.3368 34.3161 39.8565C32.9301 38.3368 32.2371 36.6145 32.2371 34.6896C32.2371 32.562 33.1322 30.7131 34.9225 29.1428C36.7127 27.5724 38.8784 26.7873 41.4194 26.7873C42.3434 26.7873 43.2674 26.8886 44.1914 27.0912C44.4224 27.1925 44.6245 27.1925 44.7978 27.0912C44.971 26.9899 45.0865 26.8632 45.1443 26.7113C45.202 26.5593 45.1732 26.4073 45.0577 26.2554C44.9422 26.1034 44.8267 25.9768 44.7112 25.8754C43.5561 25.5715 42.4589 25.4195 41.4194 25.4195C39.6869 25.4195 38.0699 25.7488 36.5684 26.4073C35.0669 27.0659 33.7964 28.003 32.7568 29.2187L26.6931 25.7235V20.5566C29.4651 20.3539 31.8328 19.3661 33.7964 17.5932C35.7599 15.8202 36.7416 13.718 36.7416 11.2865C36.7416 9.56421 36.2507 7.99387 35.269 6.5755C34.2872 5.15713 32.9878 4.01737 31.3708 3.15622C29.7538 2.29506 27.9636 1.86449 26.0001 1.86449C23.8056 1.86449 21.7843 2.4217 19.9363 3.53614C19.8208 3.63745 19.7342 3.78942 19.6764 3.99204C19.6187 4.19467 19.6475 4.37196 19.763 4.52393C19.8785 4.6759 20.0518 4.75188 20.2828 4.75188C20.5138 4.75188 20.687 4.70123 20.8025 4.59991C22.4196 3.68811 24.1521 3.2322 26.0001 3.2322C28.5411 3.2322 30.7067 4.01737 32.497 5.58771C34.2872 7.15804 35.1824 9.05765 35.1824 11.2865C35.1824 13.1101 34.4894 14.7818 33.1034 16.3015C32.1793 14.7818 30.9088 13.566 29.2918 12.6542C29.9848 11.945 30.3313 11.1092 30.3313 10.1468C30.3313 9.18429 29.8982 8.32313 29.032 7.56329C28.1657 6.80345 27.1551 6.42353 26.0001 6.42353C24.8451 6.42353 23.8344 6.80345 22.9682 7.56329C22.1019 8.32313 21.6688 9.18429 21.6688 10.1468C21.6688 11.1092 22.0153 11.945 22.7083 12.6542C21.0913 13.566 19.8208 14.7818 18.8968 16.3015C17.5108 14.7818 16.8178 13.1101 16.8178 11.2865C16.8178 9.46289 17.453 7.79124 18.7235 6.27156C18.839 6.17025 18.8968 6.01828 18.8968 5.81566C18.8968 5.61303 18.8102 5.46107 18.6369 5.35975C18.4637 5.25844 18.2615 5.23311 18.0305 5.28377C17.7995 5.33443 17.6263 5.41041 17.5108 5.51172C16.1248 7.23403 15.4318 9.15896 15.4318 11.2865C15.4318 13.718 16.3846 15.8202 18.2904 17.5932C20.1962 19.3661 22.5351 20.3539 25.3071 20.5566V25.7235L19.2433 29.2187C18.2038 28.003 16.9333 27.0659 15.4318 26.4073C13.9303 25.7488 12.2844 25.4195 10.4941 25.4195C8.70387 25.4195 7.00023 25.8501 5.38323 26.7113C3.76622 27.5724 2.46684 28.7122 1.48508 30.1306C0.503328 31.5489 0.0124512 33.1193 0.0124512 34.8416C0.0124512 36.9691 0.79208 38.8941 2.35134 40.6164C3.91059 42.3387 5.90298 43.4531 8.32849 43.9597C8.55949 43.9597 8.76162 43.909 8.93487 43.8077C9.10812 43.7064 9.22362 43.5797 9.28137 43.4278C9.33912 43.2758 9.31024 43.0985 9.19474 42.8959C9.07924 42.6933 8.90599 42.5919 8.67499 42.5919C7.17348 42.288 5.84523 41.7308 4.69022 40.9203C5.61423 39.198 7.05798 37.8809 9.02149 36.9691C9.25249 36.7665 9.36799 36.5385 9.36799 36.2853C9.36799 36.032 9.25249 35.8547 9.02149 35.7534C8.21299 35.2468 7.80874 34.6136 7.80874 33.8538C7.80874 33.0939 8.09749 32.4861 8.67499 32.0302C9.25249 31.5743 9.91662 31.3463 10.6674 31.3463C11.4181 31.3463 12.0823 31.5743 12.6598 32.0302C13.2373 32.4861 13.526 33.0939 13.526 33.8538C13.526 34.6136 13.1218 35.2468 12.3133 35.7534C12.0823 35.8547 11.9668 36.032 11.9668 36.2853C11.9668 36.5385 12.14 36.7665 12.4865 36.9691C14.3345 37.7796 15.7205 39.0967 16.6445 40.9203C15.143 42.0347 13.4105 42.6426 11.447 42.7439C11.3315 42.7439 11.1871 42.8199 11.0139 42.9719C10.8406 43.1238 10.7829 43.3011 10.8406 43.5037C10.8984 43.7064 10.985 43.8583 11.1005 43.9597C11.216 44.061 11.3893 44.1116 11.6203 44.1116C14.3923 43.909 16.7023 42.9212 18.5503 41.1482C20.3983 39.3753 21.3223 37.2731 21.3223 34.8416C21.3223 33.2206 20.8603 31.7009 19.9363 30.2825L26.0001 26.9392L32.0638 30.2825C31.1398 31.7009 30.6778 33.2206 30.6778 34.8416C30.6778 36.4626 31.1687 37.9822 32.1505 39.4006C33.1322 40.819 34.4316 41.9587 36.0486 42.8199C37.6656 43.681 39.427 44.1116 41.3328 44.1116C43.2385 44.1116 44.9999 43.681 46.6169 42.8199C48.2339 41.9587 49.5333 40.819 50.5151 39.4006C51.4968 37.9822 51.9877 36.4879 51.9877 34.9176C51.9877 33.3472 51.5834 31.8782 50.7749 30.5105C49.9664 29.1428 48.8692 28.003 47.4832 27.0912ZM17.684 39.8565C16.8755 38.3368 15.6628 37.1211 14.0458 36.2093C14.7388 35.5001 15.0853 34.6643 15.0853 33.7018C15.0853 32.7393 14.6521 31.8782 13.7859 31.1183C12.9196 30.3585 11.8801 29.9786 10.6674 29.9786C9.45462 29.9786 8.44399 30.3585 7.63549 31.1183C6.82698 31.8782 6.42273 32.7393 6.42273 33.7018C6.42273 34.6643 6.71148 35.5001 7.28898 36.2093C5.67198 37.1211 4.45922 38.3368 3.65072 39.8565C2.26471 38.3368 1.57171 36.6652 1.57171 34.8416C1.57171 32.6127 2.46684 30.7131 4.2571 29.1428C6.04735 27.5724 8.18411 26.7873 10.6674 26.7873C13.1506 26.7873 15.2874 27.5724 17.0777 29.1428C18.8679 30.7131 19.763 32.6127 19.763 34.8416C19.763 36.6652 19.07 38.3368 17.684 39.8565ZM24.2676 13.4141C24.4986 13.2114 24.6429 12.9835 24.7007 12.7302C24.7584 12.4769 24.6718 12.2996 24.4408 12.1983C23.6323 11.6918 23.2281 11.0586 23.2281 10.2987C23.2281 9.53888 23.4879 8.93101 24.0077 8.4751C24.5274 8.0192 25.1916 7.79124 26.0001 7.79124C26.8086 7.79124 27.4727 8.0192 27.9925 8.4751C28.5122 8.93101 28.7721 9.53888 28.7721 10.2987C28.7721 11.0586 28.3678 11.6918 27.5593 12.1983C27.4438 12.2996 27.3861 12.4769 27.3861 12.7302C27.3861 12.9835 27.5016 13.2114 27.7326 13.4141C29.5806 14.3259 30.9666 15.6429 31.8906 17.3652C30.1581 18.581 28.1946 19.1889 26.0001 19.1889C23.8056 19.1889 21.842 18.581 20.1095 17.3652C21.0335 15.6429 22.4196 14.3259 24.2676 13.4141ZM41.4194 42.7439C39.1094 42.7439 37.0881 42.136 35.3556 40.9203C36.2796 39.0967 37.7234 37.7796 39.6869 36.9691C39.9179 36.7665 40.0334 36.5385 40.0334 36.2853C40.0334 36.032 39.9179 35.8547 39.6869 35.7534C38.8784 35.2468 38.4741 34.6136 38.4741 33.8538C38.4741 33.0939 38.7629 32.4861 39.3404 32.0302C39.9179 31.5743 40.582 31.3463 41.3328 31.3463C42.0835 31.3463 42.7476 31.5743 43.3251 32.0302C43.9026 32.4861 44.1914 33.0939 44.1914 33.8538C44.1914 34.6136 43.7871 35.2468 42.9786 35.7534C42.7476 35.8547 42.6321 36.032 42.6321 36.2853C42.6321 36.5385 42.7476 36.7665 42.9786 36.9691C44.9422 37.7796 46.3859 39.0967 47.3099 40.9203C45.5774 42.136 43.6139 42.7439 41.4194 42.7439Z" fill="url(#paint0_linear_55_436)"/>
</g>
<defs>
<linearGradient id="paint0_linear_55_436" x1="26.0001" y1="44.1116" x2="26.0001" y2="1.86449" gradientUnits="userSpaceOnUse">
<stop stop-color="#4344F3"/>
<stop offset="1" stop-color="#6F16EF"/>
</linearGradient>
</defs>
</svg>
