<svg xmlns="http://www.w3.org/2000/svg" width="14" height="11" viewBox="0 0 14 11" fill="none">
  <g clip-path="url(#clip0_226_92)">
    <path d="M9.70514 0.961143C9.57694 0.832939 9.44873 0.768836 9.32053 0.768836C9.19232 0.768836 9.08014 0.832939 8.98399 0.961143C8.88784 1.08935 8.83976 1.21755 8.83976 1.34576C8.83976 1.47396 8.90386 1.57012 9.03207 1.63422L12.4936 5.28807H0.858989C0.730784 5.28807 0.618604 5.35217 0.52245 5.48037C0.426297 5.60858 0.37822 5.73678 0.37822 5.86499C0.37822 5.9932 0.426297 6.10537 0.52245 6.20153C0.618604 6.29768 0.730784 6.34576 0.858989 6.34576H12.4936L9.03207 9.99961C8.90386 10.0637 8.83976 10.1759 8.83976 10.3361C8.83976 10.4964 8.88784 10.6246 8.98399 10.7208C9.08014 10.8169 9.19232 10.865 9.32053 10.865C9.44873 10.865 9.57694 10.8009 9.70514 10.6727L14.0321 6.15345C14.1603 6.08935 14.2244 5.9932 14.2244 5.86499C14.2244 5.73678 14.1603 5.60858 14.0321 5.48037L9.70514 0.961143Z" fill="#AF0101"/>
  </g>
  <defs>
    <clipPath id="clip0_226_92">
      <rect width="13.56" height="10" fill="white" transform="matrix(1 0 0 -1 0.373215 10.865)"/>
    </clipPath>
  </defs>
</svg>