<svg xmlns="http://www.w3.org/2000/svg" width="11" height="13" viewBox="0 0 11 13" fill="none">
  <g clip-path="url(#clip0_226_82)">
    <path d="M5.40821 6.98038H5.52359C5.75434 6.98038 6.00432 6.90346 6.27353 6.74963C6.54273 6.59579 6.79271 6.4035 7.02346 6.17275C7.33113 5.78817 7.52342 5.21129 7.60034 4.44213C7.67725 4.05754 7.71571 3.67296 7.71571 3.28838C7.6388 2.28846 7.25421 1.55775 6.56196 1.09625C6.2543 0.942419 5.86971 0.865502 5.40821 0.865502C5.02363 0.865502 4.63905 0.942419 4.25446 1.09625C3.56221 1.55775 3.21609 2.28846 3.21609 3.28838C3.13917 3.67296 3.13917 4.05754 3.21609 4.44213C3.293 5.21129 3.52375 5.78817 3.90834 6.17275C4.06217 6.4035 4.27369 6.59579 4.5429 6.74963C4.81211 6.90346 5.10055 6.98038 5.40821 6.98038ZM3.79296 3.28838C3.79296 2.59613 4.02371 2.09617 4.48521 1.7885C4.71596 1.55775 5.02363 1.44238 5.40821 1.44238C5.86971 1.44238 6.2543 1.57698 6.56196 1.84619C6.86963 2.1154 7.06192 2.59613 7.13884 3.28838C7.13884 3.51913 7.10038 3.82679 7.02346 4.21138C7.02346 4.90363 6.86963 5.44204 6.56196 5.82663C6.40813 5.98046 6.23507 6.09584 6.04278 6.17275C5.85048 6.24967 5.63896 6.28813 5.40821 6.28813C5.17746 6.28813 4.96594 6.24967 4.77365 6.17275C4.58136 6.09584 4.4083 5.98046 4.25446 5.82663C4.02371 5.44204 3.86988 4.90363 3.79296 4.21138C3.71605 3.82679 3.71605 3.51913 3.79296 3.28838ZM10.0232 10.557V10.4416C10.0232 10.057 9.98475 9.71092 9.90784 9.40325C9.754 9.01867 9.44634 8.74946 8.98484 8.59563C8.3695 8.36488 7.75417 8.05721 7.13884 7.67263C7.06192 7.59571 6.985 7.57648 6.90809 7.61494C6.83117 7.6534 6.77348 7.69186 6.73503 7.73031C6.69657 7.76877 6.67734 7.84569 6.67734 7.96106C6.67734 8.07644 6.7158 8.13413 6.79271 8.13413C7.40805 8.59563 8.1003 8.94175 8.86946 9.1725C9.10021 9.24942 9.25405 9.40325 9.33096 9.634C9.40788 9.86475 9.44634 10.134 9.44634 10.4416V11.2493C9.06175 11.48 8.60025 11.6723 8.06184 11.8261C7.21575 12.0569 6.33121 12.1723 5.40821 12.1723C4.48521 12.1723 3.60067 12.0569 2.75459 11.8261C2.21617 11.6723 1.79313 11.48 1.48546 11.2493L1.37009 10.4416C1.447 10.134 1.52392 9.86475 1.60084 9.634C1.67775 9.40325 1.83159 9.24942 2.06234 9.1725C2.75459 8.94175 3.40838 8.59563 4.02371 8.13413C4.10063 8.13413 4.15832 8.07644 4.19678 7.96106C4.23523 7.84569 4.216 7.76877 4.13909 7.73031C4.06217 7.69186 3.98525 7.6534 3.90834 7.61494C3.83142 7.57648 3.7545 7.59571 3.67759 7.67263C3.13917 8.05721 2.52384 8.36488 1.83159 8.59563C1.447 8.74946 1.13934 9.01867 0.908588 9.40325C0.831671 9.71092 0.793213 10.057 0.793213 10.4416V10.557C0.793213 11.0185 0.831671 11.3646 0.908588 11.5954L1.02396 11.7108C1.33163 11.9415 1.75467 12.1338 2.29309 12.2876C3.293 12.6722 4.35061 12.8645 5.4659 12.8645C6.58119 12.8645 7.6388 12.6722 8.63871 12.2876C9.10021 12.1338 9.4848 11.9415 9.79246 11.7108L9.90784 11.5954C9.98475 11.3646 10.0232 11.0185 10.0232 10.557Z" fill="#212529"/>
  </g>
  <defs>
    <clipPath id="clip0_226_82">
      <rect width="9.23" height="12" fill="white" transform="matrix(1 0 0 -1 0.793213 12.865)"/>
    </clipPath>
  </defs>
</svg>